<svg xmlns="http://www.w3.org/2000/svg" xmlns:xlink="http://www.w3.org/1999/xlink" viewBox="0 0 870.35 817.62"><defs><style>.cls-1{fill:url(#New_Gradient_Swatch_2);}.cls-2{fill:url(#New_Gradient_Swatch_3);}.cls-3{fill:url(#New_Gradient_Swatch_1);}</style><linearGradient id="New_Gradient_Swatch_2" x1="357.76" y1="513.85" x2="739.31" y2="16.73" gradientUnits="userSpaceOnUse"><stop offset="0" stop-color="#5956e9"/><stop offset="1" stop-color="#e5ccc3"/></linearGradient><linearGradient id="New_Gradient_Swatch_3" x1="51.08" y1="873.38" x2="414.29" y2="378.09" gradientUnits="userSpaceOnUse"><stop offset="0" stop-color="#0ccda3"/><stop offset="0.14" stop-color="#10c7a6"/><stop offset="0.33" stop-color="#1bb5ae"/><stop offset="0.55" stop-color="#2d98bb"/><stop offset="0.79" stop-color="#4671cc"/><stop offset="1" stop-color="#6047df"/></linearGradient><linearGradient id="New_Gradient_Swatch_1" x1="476.24" y1="444.99" x2="916.5" y2="1022.82" gradientUnits="userSpaceOnUse"><stop offset="0" stop-color="#121c84"/><stop offset="1" stop-color="#8278da"/></linearGradient></defs><g id="Layer_2" data-name="Layer 2"><g id="Layer_1-2" data-name="Layer 1"><path class="cls-1" d="M739.17,499.48a116.87,116.87,0,0,0-203.32,1.79L435.21,661.91,218.09,315.38h0l38.39-81.06,21.8-46L333.14,72.44l10.09-21.31a107.45,107.45,0,0,1,183.85,1.39l8.65,18.23,56.64,119.36L612.24,232,652,315.84h0Z"/><path class="cls-2" d="M435.21,661.91l-67,107-8.59,13.71a74.72,74.72,0,0,1-63.32,35H34.19A34.14,34.14,0,0,1,3.33,768.86h0L218.09,315.38Z"/><path class="cls-3" d="M836.17,817.33h-262a74.72,74.72,0,0,1-63.32-35.05l-8.59-13.71-67-107L535.85,501l6.59-10.51a116.8,116.8,0,0,1,196.73,8.71l8.1,17.06L867,768.57h0A34.13,34.13,0,0,1,836.17,817.33Z"/></g></g></svg>